<svg width="149.151611328125px" height="153.79999999999998px" xmlns="http://www.w3.org/2000/svg" viewBox="175.4241943359375 -1.8999999999999915 149.151611328125 153.79999999999998" style="background:#051103" preserveAspectRatio="xMidYMid"><defs><linearGradient id="editing-glowing-gradient" x1="0.8146601955249185" x2="0.18533980447508147" y1="0.8885729807284856" y2="0.11142701927151444"><stop offset="0" stop-color="#67ff43"></stop><stop offset="1" stop-color="#90ffff"></stop></linearGradient><filter id="editing-glowing" x="-100%" y="-100%" width="300%" height="300%"><feGaussianBlur in="SourceGraphic" result="blur" stdDeviation="10"></feGaussianBlur><feMerge><feMergeNode in="blur"></feMergeNode><feMergeNode in="SourceGraphic"></feMergeNode></feMerge></filter></defs><g filter="url(#editing-glowing)"><g transform="translate(201.21619033813477, 100.45500183105469)"><path d="M17.53-21.31L17.53-21.31L17.53-21.31Q17.53-19.06 18.02-16.80L18.02-16.80L18.02-16.80Q18.50-14.53 19.63-12.72L19.63-12.72L19.63-12.72Q20.75-10.91 22.59-9.78L22.59-9.78L22.59-9.78Q24.44-8.66 27.16-8.66L27.16-8.66L27.16-8.66Q29.25-8.78 30.83-9.52L30.83-9.52L30.83-9.52Q32.41-10.25 33.55-11.42L33.55-11.42L33.55-11.42Q34.69-12.59 35.44-14.11L35.44-14.11L35.44-14.11Q36.19-15.63 36.63-17.30L36.63-17.30L36.63-17.30Q37.06-18.97 37.23-20.72L37.23-20.72L37.23-20.72Q37.41-22.47 37.41-24.09L37.41-24.09L37.41-24.09Q37.41-26.31 36.81-28.39L36.81-28.39L36.81-28.39Q36.22-30.47 35.03-32.06L35.03-32.06L35.03-32.06Q33.84-33.66 32.08-34.63L32.08-34.63L32.08-34.63Q30.31-35.59 27.97-35.59L27.97-35.59L27.97-35.59Q26.13-35.59 24.64-34.91L24.64-34.91L24.64-34.91Q23.16-34.22 22-33.08L22-33.08L22-33.08Q20.84-31.94 20.02-30.45L20.02-30.45L20.02-30.45Q19.19-28.97 18.64-27.39L18.64-27.39L18.64-27.39Q18.09-25.81 17.83-24.23L17.83-24.23L17.83-24.23Q17.56-22.66 17.53-21.31ZM23.63 1.63L23.63 1.63L23.63 1.63Q18.94 1.63 15.25-0.13L15.25-0.13L15.25-0.13Q11.56-1.88 9.02-4.86L9.02-4.86L9.02-4.86Q6.47-7.84 5.11-11.77L5.11-11.77L5.11-11.77Q3.75-15.69 3.75-20.06L3.75-20.06L3.75-20.06Q3.75-24.97 5.14-29.11L5.14-29.11L5.14-29.11Q6.53-33.25 9.03-36.45L9.03-36.45L9.03-36.45Q11.53-39.66 14.98-41.86L14.98-41.86L14.98-41.86Q18.44-44.06 22.56-45.13L22.56-45.13L22.56-45.13Q22.94-45.13 23.14-45.72L23.14-45.72L23.14-45.72Q23.34-46.31 23.50-47.03L23.50-47.03L23.50-47.03Q23.66-47.75 23.88-48.34L23.88-48.34L23.88-48.34Q24.09-48.94 24.50-48.94L24.50-48.94L24.50-48.94Q30.56-48.31 35.41-46.80L35.41-46.80L35.41-46.80Q40.25-45.28 43.63-42.47L43.63-42.47L43.63-42.47Q47-39.66 48.80-35.36L48.80-35.36L48.80-35.36Q50.59-31.06 50.59-24.88L50.59-24.88L50.59-24.88Q50.59-20.91 49.63-17.41L49.63-17.41L49.63-17.41Q48.66-13.91 46.91-10.95L46.91-10.95L46.91-10.95Q45.16-8 42.70-5.67L42.70-5.67L42.70-5.67Q40.25-3.34 37.25-1.72L37.25-1.72L37.25-1.72Q34.25-0.09 30.80 0.77L30.80 0.77L30.80 0.77Q27.34 1.63 23.63 1.63ZM52.59-2.28L52.59-2.28L52.59-2.28Q53-3.09 53.44-4.11L53.44-4.11L53.44-4.11Q53.88-5.13 54.25-6.31L54.25-6.31L55.09-8.38L55.09-8.38Q54.53-9.22 53.95-10.20L53.95-10.20L53.95-10.20Q53.38-11.19 52.91-12.22L52.91-12.22L52.91-12.22Q52.44-13.25 52.14-14.28L52.14-14.28L52.14-14.28Q51.84-15.31 51.84-16.28L51.84-16.28L51.84-16.28Q51.84-16.34 52.33-16.39L52.33-16.39L52.33-16.39Q52.81-16.44 53.55-16.47L53.55-16.47L53.55-16.47Q54.28-16.50 55.14-16.52L55.14-16.52L55.14-16.52Q56-16.53 56.73-16.55L56.73-16.55L56.73-16.55Q57.47-16.56 57.95-16.58L57.95-16.58L57.95-16.58Q58.44-16.59 58.44-16.59L58.44-16.59L58.44-16.59Q59.16-18.47 59.84-20.16L59.84-20.16L59.84-20.16Q60.53-21.84 61.22-23.56L61.22-23.56L61.22-23.56Q61.91-25.28 62.59-27.08L62.59-27.08L62.59-27.08Q63.28-28.88 63.97-30.94L63.97-30.94L63.97-30.94Q65.28-34.81 66.53-37.75L66.53-37.75L66.53-37.75Q67.78-40.69 68.88-43.22L68.88-43.22L68.88-43.22Q69-43.53 69.30-43.80L69.30-43.80L69.30-43.80Q69.59-44.06 69.94-44.25L69.94-44.25L69.94-44.25Q70.28-44.44 70.61-44.56L70.61-44.56L70.61-44.56Q70.94-44.69 71.13-44.75L71.13-44.75L71.13-44.75Q71.25-44.78 72.08-45.03L72.08-45.03L72.08-45.03Q72.91-45.28 73.97-45.56L73.97-45.56L73.97-45.56Q75.03-45.84 76.08-46.06L76.08-46.06L76.08-46.06Q77.13-46.28 77.75-46.28L77.75-46.28L78.31-46.28L78.31-46.28Q78.81-46.28 79.27-46.05L79.27-46.05L79.27-46.05Q79.72-45.81 79.88-45.13L79.88-45.13L79.88-45.13Q81.38-41.28 83.08-36.73L83.08-36.73L83.08-36.73Q84.78-32.19 86.41-26.72L86.41-26.72L86.41-26.72Q87.28-23.78 88.13-21.16L88.13-21.16L88.13-21.16Q88.97-18.53 89.81-16.03L89.81-16.03L89.81-16.03Q90.66-13.53 91.52-11.03L91.52-11.03L91.52-11.03Q92.38-8.53 93.28-5.88L93.28-5.88L93.28-5.88Q93.56-4.75 93.86-4.09L93.86-4.09L93.86-4.09Q94.16-3.44 94.41-3.06L94.41-3.06L94.41-3.06Q94.66-2.69 94.81-2.52L94.81-2.52L94.81-2.52Q94.97-2.34 94.97-2.16L94.97-2.16L94.97-2.16Q94.97-1.97 94.38-1.78L94.38-1.78L87.66 0.41L87.66 0.41Q86.91 0.69 86.13 0.97L86.13 0.97L86.13 0.97Q85.34 1.25 84.66 1.47L84.66 1.47L84.66 1.47Q83.97 1.69 83.45 1.83L83.45 1.83L83.45 1.83Q82.94 1.97 82.72 1.97L82.72 1.97L82.53 1.97L82.53 1.97Q82.09 1.97 81.91 1.70L81.91 1.70L81.91 1.70Q81.72 1.44 81.66 1.19L81.66 1.19L81.66 1.19Q81.34 0.16 81.03-0.67L81.03-0.67L81.03-0.67Q80.72-1.50 80.42-2.33L80.42-2.33L80.42-2.33Q80.13-3.16 79.83-4.09L79.83-4.09L79.83-4.09Q79.53-5.03 79.25-6.31L79.25-6.31L79.25-6.31Q79.19-6.47 78.91-6.58L78.91-6.58L78.91-6.58Q78.63-6.69 78.23-6.75L78.23-6.75L78.23-6.75Q77.84-6.81 77.41-6.83L77.41-6.83L77.41-6.83Q76.97-6.84 76.59-6.84L76.59-6.84L76.59-6.84Q75.41-6.84 74.67-6.83L74.67-6.83L74.67-6.83Q73.94-6.81 73.38-6.80L73.38-6.80L73.38-6.80Q72.81-6.78 72.30-6.77L72.30-6.77L72.30-6.77Q71.78-6.75 71.03-6.75L71.03-6.75L71.03-6.75Q70.13-6.75 69.17-6.77L69.17-6.77L69.17-6.77Q68.22-6.78 67.44-6.81L67.44-6.81L65.66-6.88L65.66-6.88Q64.84-4.63 64.03-2.66L64.03-2.66L64.03-2.66Q63.22-0.69 62.28 1.41L62.28 1.41L62.28 1.41Q62.22 1.66 61.98 1.81L61.98 1.81L61.98 1.81Q61.75 1.97 61.50 1.97L61.50 1.97L61.50 1.97Q61.31 1.97 61.28 1.94L61.28 1.94L61.28 1.94Q58.25 0.84 56.19-0.22L56.19-0.22L56.19-0.22Q54.13-1.28 52.59-2.28ZM73.66-30.38L73.66-30.38L73.66-30.38Q72.91-27.59 72.17-25.33L72.17-25.33L72.17-25.33Q71.44-23.06 70.83-21.31L70.83-21.31L70.83-21.31Q70.22-19.56 69.78-18.36L69.78-18.36L69.78-18.36Q69.34-17.16 69.16-16.50L69.16-16.50L69.16-16.22L69.16-16.22Q69.16-16.03 69.13-15.97L69.13-15.97L76.63-15.97L76.63-15.97Q76.28-17.50 75.89-19.06L75.89-19.06L75.89-19.06Q75.50-20.63 75.13-22.34L75.13-22.34L75.13-22.34Q74.75-24.06 74.38-26.03L74.38-26.03L74.38-26.03Q74-28 73.66-30.38Z" fill="url(#editing-glowing-gradient)"></path></g></g><style>text {
  font-size: 64px;
  font-family: Arial Black;
  dominant-baseline: central;
  text-anchor: middle;
}</style></svg>