<svg width="182.67499999999998px" height="121.39999999999999px" xmlns="http://www.w3.org/2000/svg" viewBox="158.66250000000002 14.300000000000004 182.67499999999998 121.39999999999999" style="background: rgb(40, 41, 47);" preserveAspectRatio="xMidYMid"><defs><linearGradient id="editing-glowing-gradient" x1="0.8146601955249185" x2="0.18533980447508147" y1="0.8885729807284856" y2="0.11142701927151444"><stop offset="0" stop-color="#0a0a0a"></stop><stop offset="1" stop-color="#ffffff"></stop></linearGradient><filter id="editing-glowing" x="-100%" y="-100%" width="300%" height="300%"><feGaussianBlur in="SourceGraphic" result="blur" stdDeviation="10"></feGaussianBlur><feMerge><feMergeNode in="blur"></feMergeNode><feMergeNode in="SourceGraphic"></feMergeNode></feMerge></filter></defs><g filter="url(#editing-glowing)"><g transform="translate(189.71000981330872, 97.43000030517578)"><path d="M2.05-15.62L2.05-15.62L2.05-15.62Q2.05-27.71 8.32-35.33L8.32-35.33L8.32-35.33Q14.98-43.58 26.56-43.58L26.56-43.58L26.56-43.58Q34.94-43.58 39.17-39.52L39.17-39.52L39.17-39.52Q43.39-35.46 43.39-26.88L43.39-26.88L43.39-26.88Q43.39-13.82 36.74-6.21L36.74-6.21L36.74-6.21Q30.14 1.28 19.07 1.28L19.07 1.28L19.07 1.28Q10.43 1.28 6.24-3.04L6.24-3.04L6.24-3.04Q2.05-7.36 2.05-15.62ZM18.88-28.86L18.88-28.86L18.88-28.86Q16-17.34 16-8.26L16-8.26L16-8.26Q16-6.08 16.74-4.67L16.74-4.67L16.74-4.67Q17.47-3.26 19.42-3.26L19.42-3.26L19.42-3.26Q21.38-3.26 22.59-4.19L22.59-4.19L22.59-4.19Q23.81-5.12 24.77-7.23L24.77-7.23L24.77-7.23Q26.30-10.69 27.74-18.02L27.74-18.02L27.74-18.02Q29.18-25.34 29.31-28.38L29.31-28.38L29.31-28.38Q29.44-31.42 29.44-33.73L29.44-33.73L29.44-33.73Q29.44-36.03 28.74-37.50L28.74-37.50L28.74-37.50Q28.03-38.98 26.14-38.98L26.14-38.98L26.14-38.98Q24.26-38.98 22.98-37.82L22.98-37.82L22.98-37.82Q20.61-35.65 18.88-28.86ZM73.60 1.28L73.60 1.28L73.60 1.28Q65.86 1.28 65.86-4.74L65.86-4.74L65.86-4.74Q65.92-6.40 66.43-9.22L66.43-9.22L67.58-15.10L67.58-15.10Q69.31-23.42 69.31-25.28L69.31-25.28L69.31-25.28Q69.31-28.99 67.14-28.99L67.14-28.99L67.14-28.99Q63.49-28.99 61.57-19.46L61.57-19.46L57.79 0L44.93 1.28L51.58-32.70L62.08-33.92L61.06-27.65L61.06-27.65Q64.06-33.92 73.28-33.92L73.28-33.92L73.28-33.92Q77.76-33.92 79.65-32.03L79.65-32.03L79.65-32.03Q81.54-30.14 81.54-25.92L81.54-25.92L81.54-25.92Q81.54-21.95 79.49-12.67L79.49-12.67L79.49-12.67Q78.53-8.51 78.53-6.94L78.53-6.94L78.53-6.94Q78.53-5.38 79.39-4.48L79.39-4.48L79.39-4.48Q80.26-3.58 81.54-3.46L81.54-3.46L81.54-3.46Q80.90-1.28 78.69 0L78.69 0L78.69 0Q76.48 1.28 73.60 1.28ZM112.58-10.82L112.58-10.82L112.58-10.82Q114.18-9.73 114.18-7.33L114.18-7.33L114.18-7.33Q114.18-4.93 112.96-3.39L112.96-3.39L112.96-3.39Q111.74-1.86 109.76-0.83L109.76-0.83L109.76-0.83Q105.66 1.28 101.25 1.28L101.25 1.28L101.25 1.28Q96.83 1.28 94.24 0.32L94.24 0.32L94.24 0.32Q91.65-0.64 89.92-2.43L89.92-2.43L89.92-2.43Q86.53-5.82 86.53-12.03L86.53-12.03L86.53-12.03Q86.53-21.70 91.78-27.58L91.78-27.58L91.78-27.58Q97.41-33.92 107.20-33.92L107.20-33.92L107.20-33.92Q113.28-33.92 116.29-31.36L116.29-31.36L116.29-31.36Q118.53-29.44 118.53-26.30L118.53-26.30L118.53-26.30Q118.53-15.04 99.07-15.04L99.07-15.04L99.07-15.04Q98.82-13.38 98.82-11.97L98.82-11.97L98.82-11.97Q98.82-9.02 100.13-7.90L100.13-7.90L100.13-7.90Q101.44-6.78 103.87-6.78L103.87-6.78L103.87-6.78Q106.30-6.78 108.90-7.90L108.90-7.90L108.90-7.90Q111.49-9.02 112.58-10.82ZM99.52-17.79L99.52-17.79L99.52-17.79Q104.06-17.79 106.69-20.61L106.69-20.61L106.69-20.61Q109.31-23.30 109.31-27.58L109.31-27.58L109.31-27.58Q109.31-29.06 108.77-29.86L108.77-29.86L108.77-29.86Q108.22-30.66 107.14-30.66L107.14-30.66L107.14-30.66Q106.05-30.66 105.12-30.24L105.12-30.24L105.12-30.24Q104.19-29.82 103.23-28.42L103.23-28.42L103.23-28.42Q100.86-25.22 99.52-17.79Z" fill="url(#editing-glowing-gradient)"></path></g></g><style>text {
  font-size: 64px;
  font-family: Arial Black;
  dominant-baseline: central;
  text-anchor: middle;
}</style></svg>