<svg width="343.66249999999997px" height="170.6px" xmlns="http://www.w3.org/2000/svg" viewBox="78.16875000000002 -10.299999999999997 343.66249999999997 170.6" style="background:#051103" preserveAspectRatio="xMidYMid"><defs><linearGradient id="editing-glowing-gradient" x1="0.8146601955249185" x2="0.18533980447508147" y1="0.8885729807284856" y2="0.11142701927151444"><stop offset="0" stop-color="#67ff43"></stop><stop offset="1" stop-color="#90ffff"></stop></linearGradient><filter id="editing-glowing" x="-100%" y="-100%" width="300%" height="300%"><feGaussianBlur in="SourceGraphic" result="blur" stdDeviation="10"></feGaussianBlur><feMerge><feMergeNode in="blur"></feMergeNode><feMergeNode in="SourceGraphic"></feMergeNode></feMerge></filter></defs><g filter="url(#editing-glowing)"><g transform="translate(130.50999689102173, 116.6299991607666)"><path d="M75.37-58.83L75.37-20.98L75.37-20.98Q75.37-15.87 73.87-11.71L73.87-11.71L73.87-11.71Q72.37-7.55 68.54-4.61L68.54-4.61L68.54-4.61Q64.71-1.67 58.00 0L58.00 0L58.00 0Q51.28 1.67 40.96 1.67L40.96 1.67L40.96 1.67Q30.64 1.67 23.87 0L23.87 0L23.87 0Q17.09-1.67 13.26-4.61L13.26-4.61L13.26-4.61Q9.44-7.55 7.94-11.71L7.94-11.71L7.94-11.71Q6.44-15.87 6.44-20.98L6.44-20.98L6.44-58.83L6.44-58.83Q6.44-63.94 7.94-68.10L7.94-68.10L7.94-68.10Q9.44-72.26 13.26-75.26L13.26-75.26L13.26-75.26Q17.09-78.25 23.87-79.92L23.87-79.92L23.87-79.92Q30.64-81.59 40.96-81.59L40.96-81.59L40.96-81.59Q51.28-81.59 58.00-79.92L58.00-79.92L58.00-79.92Q64.71-78.25 68.54-75.26L68.54-75.26L68.54-75.26Q72.37-72.26 73.87-68.10L73.87-68.10L73.87-68.10Q75.37-63.94 75.37-58.83L75.37-58.83ZM63.27-23.53L63.27-23.53L63.27-56.28L63.27-56.28Q63.27-62.94 58.50-67.10L58.50-67.10L58.50-67.10Q53.72-71.26 40.74-71.26L40.74-71.26L40.74-71.26Q27.75-71.26 23.09-67.10L23.09-67.10L23.09-67.10Q18.43-62.94 18.43-56.28L18.43-56.28L18.43-23.53L18.43-23.53Q18.43-16.87 23.09-12.71L23.09-12.71L23.09-12.71Q27.75-8.55 40.74-8.55L40.74-8.55L40.74-8.55Q53.72-8.55 58.50-12.71L58.50-12.71L58.50-12.71Q63.27-16.87 63.27-23.53ZM19.54-23.53L19.54-23.53L19.54-56.28L19.54-56.28Q19.54-62.49 23.98-66.32L23.98-66.32L23.98-66.32Q28.42-70.15 40.74-70.15L40.74-70.15L40.74-70.15Q53.06-70.15 57.61-66.32L57.61-66.32L57.61-66.32Q62.16-62.49 62.16-56.28L62.16-56.28L62.16-23.53L62.16-23.53Q62.16-17.32 57.61-13.49L57.61-13.49L57.61-13.49Q53.06-9.66 40.74-9.66L40.74-9.66L40.74-9.66Q28.42-9.66 23.98-13.49L23.98-13.49L23.98-13.49Q19.54-17.32 19.54-23.53ZM31.64-54.83L31.64-24.98L31.64-24.98Q31.64-22.75 33.30-21.26L33.30-21.26L33.30-21.26Q34.97-19.76 40.96-19.76L40.96-19.76L40.96-19.76Q46.95-19.76 48.62-21.26L48.62-21.26L48.62-21.26Q50.28-22.75 50.28-24.98L50.28-24.98L50.28-54.83L50.28-54.83Q50.28-56.94 48.62-58.44L48.62-58.44L48.62-58.44Q46.95-59.94 40.96-59.94L40.96-59.94L40.96-59.94Q34.97-59.94 33.30-58.44L33.30-58.44L33.30-58.44Q31.64-56.94 31.64-54.83L31.64-54.83ZM144.97-23.09L104.12-69.04L104.12-69.04Q103.56-69.60 103.23-69.82L103.23-69.82L103.23-69.82Q102.90-70.04 102.45-70.04L102.45-70.04L102.45-70.04Q102.01-70.04 101.56-69.71L101.56-69.71L101.56-69.71Q101.12-69.38 101.12-68.71L101.12-68.71L101.12-9.99L102.23-9.99L102.23-68.49L102.23-68.49Q102.23-68.60 102.29-68.71L102.29-68.71L102.29-68.71Q102.34-68.82 102.45-68.82L102.45-68.82L102.45-68.82Q102.56-68.82 102.73-68.71L102.73-68.71L102.73-68.71Q102.90-68.60 103.01-68.49L103.01-68.49L144.97-21.42L144.97-9.99L146.08-9.99L146.08-69.93L144.97-69.93L144.97-23.09ZM110.11 0L110.11 0L93.46 0L93.46 0Q91.35 0 90.41-0.94L90.41-0.94L90.41-0.94Q89.47-1.89 89.47-4.00L89.47-4.00L89.47-75.92L89.47-75.92Q89.47-78.03 90.41-78.98L90.41-78.98L90.41-78.98Q91.35-79.92 93.46-79.92L93.46-79.92L105.01-79.92L105.01-79.92Q107.12-79.92 108.61-79.25L108.61-79.25L108.61-79.25Q110.11-78.59 111.56-76.92L111.56-76.92L133.09-52.28L133.09-75.92L133.09-75.92Q133.09-78.03 134.03-78.98L134.03-78.98L134.03-78.98Q134.98-79.92 137.09-79.92L137.09-79.92L153.74-79.92L153.74-79.92Q155.84-79.92 156.79-78.98L156.79-78.98L156.79-78.98Q157.73-78.03 157.73-75.92L157.73-75.92L157.73-4.00L157.73-4.00Q157.73-1.89 156.79-0.94L156.79-0.94L156.79-0.94Q155.84 0 153.74 0L153.74 0L137.09 0L137.09 0Q134.98 0 134.03-0.94L134.03-0.94L134.03-0.94Q133.09-1.89 133.09-4.00L133.09-4.00L133.09-17.65L114.11-40.63L114.11-4.00L114.11-4.00Q114.11-1.89 113.16-0.94L113.16-0.94L113.16-0.94Q112.22 0 110.11 0ZM228.55 0L228.55 0L177.04 0L177.04 0Q174.94 0 173.99-0.94L173.99-0.94L173.99-0.94Q173.05-1.89 173.05-4.00L173.05-4.00L173.05-75.92L173.05-75.92Q173.05-78.03 173.99-78.98L173.99-78.98L173.99-78.98Q174.94-79.92 177.04-79.92L177.04-79.92L228.55-79.92L228.55-79.92Q230.66-79.92 231.60-78.98L231.60-78.98L231.60-78.98Q232.54-78.03 232.54-75.92L232.54-75.92L232.54-62.94L232.54-62.94Q232.54-60.83 231.60-59.88L231.60-59.88L231.60-59.88Q230.66-58.94 228.55-58.94L228.55-58.94L197.91-58.94L197.91-50.39L219.56-50.39L219.56-50.39Q221.67-50.39 222.61-49.45L222.61-49.45L222.61-49.45Q223.55-48.51 223.55-46.40L223.55-46.40L223.55-34.52L223.55-34.52Q223.55-32.41 222.61-31.47L222.61-31.47L222.61-31.47Q221.67-30.53 219.56-30.53L219.56-30.53L197.91-30.53L197.91-20.98L228.55-20.98L228.55-20.98Q230.66-20.98 231.60-20.04L231.60-20.04L231.60-20.04Q232.54-19.09 232.54-16.98L232.54-16.98L232.54-4.00L232.54-4.00Q232.54-1.89 231.60-0.94L231.60-0.94L231.60-0.94Q230.66 0 228.55 0ZM222.55-9.99L222.55-11.10L186.26-11.10L186.26-39.85L213.56-39.85L213.56-40.96L186.26-40.96L186.26-68.82L222.55-68.82L222.55-69.93L185.15-69.93L185.15-9.99L222.55-9.99Z" fill="url(#editing-glowing-gradient)"></path></g></g><style>text {
  font-size: 64px;
  font-family: Arial Black;
  dominant-baseline: central;
  text-anchor: middle;
}</style></svg>