<?xml version="1.0" standalone="no"?>
<!DOCTYPE svg PUBLIC "-//W3C//DTD SVG 20010904//EN"
 "http://www.w3.org/TR/2001/REC-SVG-20010904/DTD/svg10.dtd">
<svg version="1.0" xmlns="http://www.w3.org/2000/svg"
 width="200.000000pt" height="73.000000pt" viewBox="0 0 200.000000 73.000000"
 preserveAspectRatio="xMidYMid meet">

<g transform="translate(0.000000,73.000000) scale(0.100000,-0.100000)"
fill="#000000" stroke="none">
<path d="M575 664 l-36 -36 22 -24 c29 -31 36 -30 47 9 28 92 20 104 -33 51z"/>
<path d="M254 656 c-130 -41 -217 -162 -218 -306 -1 -62 4 -85 27 -135 48
-103 125 -164 230 -184 258 -47 460 224 343 462 -15 32 -31 55 -35 50 -4 -4
-20 -39 -36 -78 -48 -116 -191 -399 -208 -414 -23 -18 -36 -11 -120 61 -136
119 -197 202 -169 230 18 18 58 0 143 -67 45 -36 86 -65 90 -65 4 0 35 57 69
127 33 70 81 162 105 204 25 43 45 80 45 83 0 2 -25 14 -55 25 -63 24 -148 26
-211 7z"/>
<path d="M915 486 c-72 -32 -91 -132 -36 -187 37 -37 104 -41 144 -8 99 77 5
245 -108 195z m77 -63 c36 -33 10 -103 -39 -103 -20 0 -53 38 -53 60 0 24 34
60 57 60 9 0 25 -7 35 -17z"/>
<path d="M1084 406 c-3 -12 -4 -47 -2 -77 3 -50 5 -54 28 -54 22 0 26 5 30 45
4 37 9 45 25 45 16 0 21 -8 25 -45 4 -40 8 -45 30 -45 20 0 26 6 28 30 5 40
-15 103 -36 114 -9 5 -41 9 -70 9 -45 0 -53 -3 -58 -22z"/>
<path d="M1292 410 c-16 -15 -22 -33 -22 -60 0 -57 26 -80 89 -80 53 0 65 8
55 35 -5 12 -14 15 -33 12 -15 -3 -33 -2 -41 4 -11 6 -2 9 27 9 60 0 76 36 35
83 -21 24 -82 22 -110 -3z m78 -40 c0 -5 -9 -10 -20 -10 -11 0 -20 5 -20 10 0
6 9 10 20 10 11 0 20 -4 20 -10z"/>
<path d="M1464 405 c-15 -15 -24 -36 -24 -55 0 -51 36 -79 104 -79 l56 0 0 79
0 79 -56 0 c-46 0 -61 -5 -80 -24z m76 -55 c0 -13 -7 -20 -20 -20 -13 0 -20 7
-20 20 0 13 7 20 20 20 13 0 20 -7 20 -20z"/>
<path d="M1630 314 l0 -114 25 0 c23 0 25 4 25 40 0 37 2 40 24 34 28 -7 74
30 77 61 5 68 -21 94 -97 93 l-54 -1 0 -113z m100 40 c0 -20 -30 -30 -40 -13
-11 17 7 40 26 32 8 -3 14 -12 14 -19z"/>
<path d="M1804 406 c-2 -11 -4 -61 -2 -111 3 -89 3 -90 28 -90 21 0 25 5 28
36 3 33 6 36 34 36 62 0 92 87 46 130 -17 16 -36 21 -76 21 -45 0 -53 -3 -58
-22z m102 -65 c-9 -14 -33 -14 -41 -1 -4 6 -1 18 6 26 11 13 14 13 27 0 8 -8
11 -19 8 -25z"/>
</g>
</svg>
